<?xml version="1.0" encoding="UTF-8" standalone="no"?>
<svg
   xmlns:dc="http://purl.org/dc/elements/1.1/"
   xmlns:cc="http://creativecommons.org/ns#"
   xmlns:rdf="http://www.w3.org/1999/02/22-rdf-syntax-ns#"
   xmlns:svg="http://www.w3.org/2000/svg"
   xmlns="http://www.w3.org/2000/svg"
   xmlns:xlink="http://www.w3.org/1999/xlink"
   xmlns:sodipodi="http://sodipodi.sourceforge.net/DTD/sodipodi-0.dtd"
   xmlns:inkscape="http://www.inkscape.org/namespaces/inkscape"
   width="297mm"
   height="210mm"
   viewBox="0 0 297 210"
   version="1.1"
   id="svg8"
   inkscape:version="1.0.1 (3bc2e813f5, 2020-09-07)"
   sodipodi:docname="Softpostos.svg"
   inkscape:export-filename="C:\Users\Rennan\Desktop\Softpostos.PNG"
   inkscape:export-xdpi="96"
   inkscape:export-ydpi="96">
  <defs
     id="defs2">
    <inkscape:path-effect
       effect="bspline"
       id="path-effect2855"
       is_visible="true"
       lpeversion="1"
       weight="33.333333"
       steps="2"
       helper_size="0"
       apply_no_weight="true"
       apply_with_weight="true"
       only_selected="false" />
    <linearGradient
       inkscape:collect="always"
       id="linearGradient900">
      <stop
         style="stop-color:#ffffff;stop-opacity:0.39919358"
         offset="0"
         id="stop896" />
      <stop
         style="stop-color:#ffffff;stop-opacity:0"
         offset="1"
         id="stop898" />
    </linearGradient>
    <linearGradient
       inkscape:collect="always"
       id="linearGradient1041">
      <stop
         style="stop-color:#ff1704;stop-opacity:1"
         offset="0"
         id="stop1037" />
      <stop
         style="stop-color:#a81205;stop-opacity:1"
         offset="1"
         id="stop1039" />
    </linearGradient>
    <inkscape:path-effect
       effect="bspline"
       id="path-effect877"
       is_visible="true"
       lpeversion="1"
       weight="33.333333"
       steps="2"
       helper_size="0"
       apply_no_weight="true"
       apply_with_weight="true"
       only_selected="false" />
    <rect
       x="145.28606"
       y="176.56493"
       width="1.1693043"
       height="15.785607"
       id="rect917" />
    <rect
       x="145.28605"
       y="176.56493"
       width="1.1693042"
       height="15.785607"
       id="rect917-8" />
    <linearGradient
       inkscape:collect="always"
       xlink:href="#linearGradient1041"
       id="linearGradient1043"
       x1="838.92841"
       y1="113.54673"
       x2="853.62622"
       y2="126.11619"
       gradientUnits="userSpaceOnUse"
       gradientTransform="matrix(0.9153632,0,0,0.96651445,70.310384,3.2775309)" />
    <linearGradient
       inkscape:collect="always"
       xlink:href="#linearGradient900"
       id="linearGradient894"
       x1="825.87775"
       y1="100.71578"
       x2="840.2677"
       y2="116.76511"
       gradientUnits="userSpaceOnUse"
       gradientTransform="matrix(1.0698212,0,0,1.0698212,-58.426012,-5.2808581)" />
    <linearGradient
       inkscape:collect="always"
       xlink:href="#linearGradient900"
       id="linearGradient999"
       gradientUnits="userSpaceOnUse"
       gradientTransform="matrix(1.0698212,0,0,1.0698212,-42.712268,254.52694)"
       x1="825.87775"
       y1="100.71578"
       x2="840.2677"
       y2="116.76511" />
    <linearGradient
       inkscape:collect="always"
       xlink:href="#linearGradient1041"
       id="linearGradient1201"
       gradientUnits="userSpaceOnUse"
       gradientTransform="matrix(0.9153632,0,0,0.96651445,-21.513363,297.30119)"
       x1="838.92841"
       y1="113.54673"
       x2="853.62622"
       y2="126.11619" />
    <linearGradient
       inkscape:collect="always"
       xlink:href="#linearGradient900"
       id="linearGradient1203"
       gradientUnits="userSpaceOnUse"
       gradientTransform="matrix(1.0698212,0,0,1.0698212,-150.24976,288.7428)"
       x1="825.87775"
       y1="100.71578"
       x2="840.2677"
       y2="116.76511" />
    <rect
       x="145.28606"
       y="176.56493"
       width="1.1693043"
       height="15.785607"
       id="rect2924" />
    <rect
       x="145.28605"
       y="176.56493"
       width="1.1693042"
       height="15.785607"
       id="rect2926" />
    <rect
       x="145.28606"
       y="176.56493"
       width="1.1693043"
       height="15.785607"
       id="rect3127" />
    <rect
       x="145.28605"
       y="176.56493"
       width="1.1693042"
       height="15.785607"
       id="rect3129" />
    <mask
       maskUnits="userSpaceOnUse"
       id="mask3169">
      <g
         id="g3185"
         transform="matrix(0.89346924,0,0,0.89346924,107.72297,208.43881)">
        <g
           inkscape:label="Layer 1"
           id="g3183"
           transform="matrix(1.9929483,0,0,1.9929483,-288.5375,-318.93063)">
          <g
             id="g3171"
             style="font-style:normal;font-weight:normal;font-size:10.5833px;line-height:1.25;font-family:sans-serif;white-space:pre;shape-inside:url(#rect3129);fill:#000000;fill-opacity:1;stroke:none" />
          <g
             id="g3181"
             transform="translate(10.38934,130.73221)">
            <g
               id="g3179"
               transform="matrix(0.43169803,0,0,0.43169803,-33.265199,-23.036189)">
              <path
                 style="fill:#00aeef;fill-opacity:1;stroke-width:0.264583"
                 d="m 248.65211,135.74783 c -0.20042,-0.52227 -0.1574,-0.64911 1.74833,-5.15542 4.86875,-11.51266 6.52878,-18.15498 6.08341,-24.34167 -0.33404,-4.6402 -0.29336,-4.5414 -2.49766,-6.06523 -3.836,-2.651831 -8.17355,-7.661181 -10.32698,-11.926431 -1.63544,-3.2393 -3.06401,-8.67537 -3.01488,-11.47246 l 0.0239,-1.35983 0.46044,1.71979 c 2.3531,8.7891 7.76394,15.65602 14.25511,18.09122 2.66376,0.99933 4.45076,1.24107 7.01791,0.94938 2.35781,-0.26792 3.61609,-0.63187 5.49048,-1.58811 2.37395,-1.2111 5.07463,-3.59449 7.03412,-6.2077 0.81388,-1.0854 2.47125,-3.90178 2.47125,-4.19939 0,-0.0914 -0.6451,-0.16623 -1.43356,-0.16623 -2.40335,0 -2.40286,10e-4 -0.9666,-2.73437 0.70022,-1.33375 1.67015,-3.52068 2.15541,-4.85983 0.98524,-2.71893 0.87895,-2.69455 2.63006,-0.60304 l 1.04609,1.24944 -0.62264,1.82025 c -0.34246,1.00114 -1.0388,2.53463 -1.54742,3.40775 -0.50863,0.87313 -1.2422,2.7066 -1.63016,4.07439 -1.11523,3.93182 -2.79197,6.9372 -5.18137,9.28707 -1.19966,1.17982 -2.57541,2.24408 -3.39316,2.62492 -0.84774,0.3948 -1.3754,0.80901 -1.3754,1.07968 0,0.840481 1.86583,9.679641 2.76539,13.100771 1.91319,7.27602 3.8043,11.20211 5.70128,11.83629 0.62572,0.20918 -0.95456,0.54592 -1.69263,0.36067 -2.00755,-0.50386 -6.17766,-5.63053 -10.08613,-12.39972 -0.56716,-0.98227 -1.11017,-1.78594 -1.20671,-1.78594 -0.0965,0 -0.25187,0.57551 -0.34518,1.27891 -0.48429,3.6508 -6.24793,17.93172 -8.80279,21.81123 -0.84788,1.28749 -1.21881,1.60286 -2.40889,2.04813 -1.68714,0.63124 -2.1475,0.65581 -2.35101,0.12548 z m 10.40551,-41.786671 c -1.00849,-0.35967 -1.81334,-0.92047 -2.56218,-1.78524 -0.21828,-0.25208 -1.11125,-0.73048 -1.98437,-1.06311 -0.87313,-0.33262 -2.33164,-1.01921 -3.24115,-1.52574 l -1.65364,-0.92097 v -1.74691 c 0,-0.96081 0.0728,-1.81973 0.16179,-1.90871 0.089,-0.089 1.14057,0.36742 2.33685,1.01423 1.19628,0.64682 2.3141,1.17604 2.48404,1.17604 0.16994,0 0.30898,-0.28327 0.30898,-0.62949 0,-0.5152 -0.41373,-0.86169 -2.27892,-1.90852 -1.2534,-0.70348 -2.34043,-1.43933 -2.4156,-1.63523 -0.16402,-0.42743 0.97879,-5.31339 1.2874,-5.50411 0.11893,-0.0735 1.88735,0.72048 3.92981,1.76443 3.23234,1.65211 3.96195,1.92243 5.63033,2.08602 1.96161,0.19235 3.21752,0.67883 4.48705,1.73807 0.42377,0.35358 1.65594,0.82029 3.00573,1.13848 1.25816,0.29659 2.33246,0.58415 2.38733,0.63903 0.0549,0.0549 -0.58332,0.90466 -1.41823,1.8884 -1.52125,1.79243 -2.67731,3.6658 -2.69774,4.37164 -0.008,0.26197 0.18192,0.1957 0.6216,-0.21736 0.45408,-0.42659 0.88324,-0.57021 1.52136,-0.50914 0.84482,0.0808 0.80366,0.11696 -0.83095,0.72906 -0.94589,0.3542 -2.21876,1.07738 -2.82861,1.60708 -1.76078,1.52934 -4.08175,1.97566 -6.25088,1.20205 z m 12.04353,-6.89916 c 1.29933,-1.5605 1.78268,-1.9702 2.19534,-1.86082 0.29104,0.0771 1.18401,0.1475 1.98437,0.15635 l 1.45521,0.0161 -1.71323,1.5742 c -1.07981,0.99219 -2.00912,1.61831 -2.51354,1.69349 -0.44017,0.0656 -1.31197,0.18734 -1.93732,0.27052 l -1.137,0.15125 z m -24.69362,-1.15436 -1.75354,-1.92235 -0.18055,-2.06978 c -0.13567,-1.55533 -0.30813,-2.18525 -0.69386,-2.53432 -0.60753,-0.54982 -0.66715,-2.23491 -0.17022,-4.8114 l 0.31837,-1.65075 2.23718,1.60188 c 1.23045,0.88103 2.40672,1.69676 2.61394,1.81273 0.31779,0.17784 0.26785,0.62378 -0.31894,2.84848 -0.80857,3.06548 -0.83651,3.45575 -0.29064,4.05893 0.33166,0.36648 0.36762,0.82287 0.19844,2.51827 l -0.20664,2.07067 z m 22.46785,-3.03147 c -1.26744,-0.32614 -2.38162,-0.67016 -2.47594,-0.76449 -0.0943,-0.0943 0.45288,-1.33936 1.21602,-2.76674 0.76314,-1.42738 2.0028,-4.14305 2.75479,-6.03482 0.75199,-1.89177 1.50529,-3.43958 1.67399,-3.43958 0.16871,0 1.31168,0.70672 2.53994,1.5705 l 2.23321,1.5705 -1.01672,2.83824 c -1.56805,4.37731 -3.37098,7.65943 -4.19299,7.63309 -0.23532,-0.008 -1.46486,-0.28056 -2.7323,-0.6067 z m -5.63306,-1.69631 c -3.41083,-1.3317 -6.39583,-2.65918 -8.67743,-3.85897 -2.40497,-1.26467 -2.5803,-1.41083 -2.42982,-2.02544 0.35777,-1.46127 2.13347,-5.61035 3.77299,-8.81591 1.99696,-3.9044 1.46921,-3.70076 5.48218,-2.11545 3.03506,1.19899 9.12812,4.27559 9.12812,4.60911 0,1.28667 -5.35961,12.69898 -5.9388,12.64558 -0.1534,-0.0141 -0.75516,-0.21165 -1.33724,-0.43892 z m -21.62969,-6.14251 c -0.63489,-0.8883 -0.7276,-1.26501 -0.7276,-2.95624 v -1.93821 l 1.03479,1.05445 1.0348,1.05444 -0.30719,1.90179 -0.3072,1.90179 z m 38.08578,-1.27763 -1.26065,-1.27991 0.37852,-2.18122 c 0.20818,-1.19967 0.4337,-2.23641 0.50115,-2.30386 0.0675,-0.0675 0.55603,0.50664 1.08574,1.27575 0.87359,1.26842 0.96138,1.55802 0.94451,3.11589 -0.0298,2.75183 -0.17358,2.87156 -1.64927,1.37335 z m -32.46338,-0.7123 c -0.94589,-0.64481 -2.06442,-1.45327 -2.48564,-1.79657 l -0.76584,-0.62419 0.57729,-1.83327 c 0.66501,-2.11183 3.55105,-8.10016 4.13899,-8.58811 0.32021,-0.26575 0.97869,-0.19129 3.42927,0.38775 l 3.03296,0.71666 -1.4266,2.69292 c -1.33158,2.51356 -2.88925,6.03865 -3.96667,8.97678 -0.25348,0.69123 -0.54031,1.25309 -0.63742,1.24859 -0.0971,-0.005 -0.95046,-0.53575 -1.89634,-1.18056 z m 27.64896,-3.08108 c -1.01865,-0.73074 -2.015,-1.42104 -2.21412,-1.534 -0.29761,-0.16883 -0.23214,-0.70469 0.36789,-3.01103 0.84206,-3.23663 0.67178,-3.19482 3.25961,-0.80027 l 1.67006,1.54533 -0.2982,2.3618 c -0.30067,2.38145 -0.41633,2.8103 -0.75034,2.78219 -0.10055,-0.008 -1.01626,-0.61327 -2.0349,-1.34402 z m -34.38652,-2.3353 -1.29045,-1.31015 0.49088,-1.62129 c 0.26999,-0.89171 0.98988,-2.47429 1.59977,-3.51684 l 1.10888,-1.89556 1.8703,0.0873 1.8703,0.0873 -1.2855,2.42626 c -0.70702,1.33445 -1.61213,3.37877 -2.01134,4.54293 -0.39922,1.16417 -0.80157,2.20522 -0.89412,2.31345 -0.0926,0.10824 -0.74898,-0.39278 -1.45872,-1.11336 z m 27.90422,-1.60918 c -1.38244,-0.70365 -4.06135,-1.89963 -5.95312,-2.65774 -1.89177,-0.75811 -3.54283,-1.46967 -3.66901,-1.58124 -0.18916,-0.16725 1.26714,-2.49618 2.84555,-4.55066 0.33955,-0.44197 0.48732,-0.42224 2.70797,0.36143 2.58339,0.91169 6.47918,2.7904 7.49736,3.61553 l 0.65062,0.52726 -0.63603,2.69423 c -0.34981,1.48183 -0.70212,2.7339 -0.78291,2.78239 -0.0808,0.0485 -1.27798,-0.48756 -2.66043,-1.1912 z m 11.39629,0.10883 c -0.3016,-0.38343 -0.54371,-1.06804 -0.53801,-1.52135 l 0.0104,-0.82422 0.41,0.92604 c 1.01764,2.29846 1.04221,2.59491 0.11766,1.41953 z m -3.34076,-3.31125 c -0.71976,-0.59533 -1.55847,-1.27936 -1.86381,-1.52007 -0.49944,-0.39373 -0.53927,-0.62029 -0.39688,-2.25732 l 0.15829,-1.81967 1.61857,1.7322 c 1.5264,1.63356 1.62622,1.82044 1.75269,3.28138 0.0738,0.85204 0.11289,1.57543 0.087,1.60753 -0.0259,0.0321 -0.63605,-0.42873 -1.35581,-1.02405 z m -6.33573,-4.22231 c -1.30969,-0.69785 -3.42899,-1.64369 -4.70955,-2.10187 -1.28057,-0.45817 -2.28499,-0.963 -2.23204,-1.12183 0.0529,-0.15884 0.65613,-0.76333 1.34042,-1.34332 l 1.24417,-1.05453 1.51704,0.47055 c 0.83437,0.2588 2.43966,0.96454 3.5673,1.56831 l 2.05026,1.09776 2.6e-4,1.77033 c 1.4e-4,0.97367 -0.089,1.81827 -0.19818,1.87686 -0.10914,0.0586 -1.27,-0.46442 -2.57968,-1.16226 z m -17.06563,0.27062 c -0.94589,-0.27362 -2.22987,-0.62428 -2.8533,-0.77925 l -1.1335,-0.28176 0.57748,-0.81099 c 0.31761,-0.44605 1.18488,-1.45911 1.92725,-2.25126 l 1.34978,-1.44026 2.58199,0.30915 c 2.56323,0.30691 2.58826,0.30438 3.44389,-0.34824 1.01315,-0.77277 2.66717,-1.10941 4.18825,-0.85243 l 1.08601,0.18348 -1.09756,1.11833 -1.09755,1.11833 -1.59031,-0.2407 c -1.92437,-0.29126 -1.89581,-0.31071 -3.84557,2.6196 -0.80794,1.21426 -1.54731,2.19554 -1.64303,2.18062 -0.0957,-0.0149 -0.94794,-0.25099 -1.89383,-0.52462 z m -11.89162,-1.5419 -1.44059,-0.15531 1.64785,-1.48854 c 1.45822,-1.31724 1.80668,-1.50421 3.02808,-1.62466 0.75913,-0.0749 1.41476,-0.10473 1.45695,-0.0663 0.12487,0.11358 -2.90136,3.5804 -3.08426,3.5333 -0.0921,-0.0237 -0.81571,-0.11302 -1.60803,-0.19844 z"
                 id="path3173"
                 sodipodi:nodetypes="sssssscssssssscsscsssssssssssssssssssscsssssssssssssscsssssssscssscsccssscsssssccsssssscscssssssssssscccccsscssssssscssscsscssssscscsccsscccsssscsssssscssssscsssssscssssssssscsscssssscsscssscccssssccsscssc" />
              <path
                 style="fill:#006196;fill-opacity:1;stroke-width:0.271037"
                 d="m 248.50134,136.64931 c -0.57633,-0.22795 -0.40024,-0.83735 1.58396,-5.48142 2.18024,-5.10293 4.83247,-12.72379 5.48077,-15.74832 1.06318,-4.96006 1.22169,-8.08028 0.59207,-11.65461 -0.2232,-1.2671 -0.55214,-2.25283 -0.55234,-2.27982 -2.1e-4,-0.027 -0.79945,-0.78972 -1.95475,-1.605581 -2.37653,-1.67832 -5.71615,-4.9457 -7.52541,-7.36264 -1.41544,-1.89086 -3.22631,-5.57809 -4.20429,-8.17637 -0.86037,-2.28578 -1.43464,-6.4566 -1.3934,-8.10596 0.0173,-0.69168 0.13937,-1.09117 0.20817,-0.79303 0.0688,0.29814 0.40149,1.82273 0.9288,3.38797 1.64595,4.88572 3.87776,8.74186 7.1005,11.72563 7.59793,7.03452 17.1788,7.24522 24.08382,0.0212 1.91805,-2.00669 3.07456,-3.51871 4.06405,-5.31337 0.96484,-1.74997 1.00649,-1.19591 0.11532,1.53411 -1.74967,5.35998 -4.36479,9.66642 -8.1569,11.5118 -0.84428,0.41085 -1.73656,0.57613 -1.73656,1.02004 0,0.33311 0.43356,2.717651 0.96346,5.298981 0.40052,1.95114 0.83323,3.66289 1.22587,5.32031 1.44703,6.10819 2.8463,10.23767 4.24079,12.50606 0.60438,0.98314 1.36748,1.4051 1.91729,1.79396 0.43967,0.25323 0.67356,0.35498 0.64748,0.44278 -0.0217,0.073 -0.2231,0.13636 -0.63538,0.26911 -1.26235,0.40648 -2.15841,-0.021 -4.28122,-2.15442 -0.69466,-0.69812 -1.54938,-1.71591 -2.49307,-2.96804 -1.71029,-2.26927 -3.63762,-5.32003 -5.04877,-7.82965 -0.48197,-0.85715 -0.97275,-1.55846 -1.09062,-1.55846 -0.11787,0 -0.20084,0.69487 -0.29761,1.40093 -0.25443,1.85626 -2.42892,7.69312 -4.66012,12.96174 -3.54583,8.37291 -4.90242,10.69477 -6.61485,11.32157 -1.48921,0.54511 -2.10967,0.67269 -2.50709,0.51552 z"
                 id="path3175"
                 sodipodi:nodetypes="sssssssssssssssssssscscsssssssss" />
              <path
                 id="path3177"
                 style="fill:#006196;fill-opacity:1;stroke:none;stroke-width:18.0014"
                 d="m 267.68508,87.869041 a 6.4489059,6.4489059 0 0 1 -6.4489,6.448906 6.4489059,6.4489059 0 0 1 -6.44891,-6.448906 6.4489059,6.4489059 0 0 1 6.44891,-6.448906 6.4489059,6.4489059 0 0 1 6.4489,6.448906 z" />
            </g>
          </g>
        </g>
      </g>
    </mask>
    <clipPath
       clipPathUnits="userSpaceOnUse"
       id="clipPath3196">
      <a
         id="a3200"
         transform="translate(-13.844562,-0.3741771)">
        <path
           id="path3198"
           mask="url(#mask3169)"
           style="fill:#000000;fill-opacity:0.995968;stroke:#670000;stroke-width:0.0732896;stroke-miterlimit:4;stroke-dasharray:none;paint-order:fill markers stroke"
           transform="translate(-54.629889,-29.185833)"
           d="M -70.979809,102.4421 H 89.925056 V 240.5304 H -70.979809 Z" />
      </a>
    </clipPath>
    <clipPath
       clipPathUnits="userSpaceOnUse"
       id="clipPath3204">
      <rect
         style="fill:#fff821;fill-opacity:0.995968;stroke:none;stroke-width:0.0899999;stroke-miterlimit:4;stroke-dasharray:none;paint-order:fill markers stroke"
         id="rect3206"
         width="81.944832"
         height="72.964577"
         x="-108.33298"
         y="124.77089"
         clip-path="url(#clipPath3196)"
         transform="translate(56.874952,29.185832)" />
    </clipPath>
  </defs>
  <sodipodi:namedview
     id="base"
     pagecolor="#ffffff"
     bordercolor="#666666"
     borderopacity="1.0"
     inkscape:pageopacity="0.0"
     inkscape:pageshadow="2"
     inkscape:zoom="0.25"
     inkscape:cx="-96.487408"
     inkscape:cy="664.93229"
     inkscape:document-units="mm"
     inkscape:current-layer="g66"
     inkscape:document-rotation="0"
     showgrid="false"
     inkscape:snap-global="false"
     inkscape:window-width="1344"
     inkscape:window-height="705"
     inkscape:window-x="0"
     inkscape:window-y="0"
     inkscape:window-maximized="0"
     lock-margins="false"
     fit-margin-top="0"
     fit-margin-left="0"
     fit-margin-right="0"
     fit-margin-bottom="0"
     units="mm"
     showguides="true"
     inkscape:guide-bbox="true" />
  <metadata
     id="metadata5">
    <rdf:RDF>
      <cc:Work
         rdf:about="">
        <dc:format>image/svg+xml</dc:format>
        <dc:type
           rdf:resource="http://purl.org/dc/dcmitype/StillImage" />
        <dc:title />
      </cc:Work>
    </rdf:RDF>
  </metadata>
  <g
     inkscape:label="Layer 1"
     inkscape:groupmode="layer"
     id="layer1"
     transform="translate(-61.795181,-105.93949)">
    <g
       id="g66"
       transform="translate(0.99999866,0.99999925)">
      <g
         id="g881"
         transform="matrix(0.38012905,0,0,0.38663848,65.460928,102.27106)" />
      <rect
         style="fill:#ffffff;fill-opacity:0.995968;stroke:none;stroke-width:0.13883;stroke-miterlimit:4;stroke-dasharray:none;paint-order:fill markers stroke"
         id="rect3321"
         width="239.71249"
         height="188.38333"
         x="86.195175"
         y="107.58533"
         inkscape:export-xdpi="96"
         inkscape:export-ydpi="96" />
      <g
         id="g2875"
         transform="matrix(0.45844825,0,0,0.46629884,34.409502,1.3174886)"
         inkscape:export-xdpi="96"
         inkscape:export-ydpi="96">
        <path
           style="fill:#f42127;fill-opacity:1;stroke-width:0.695831"
           d="m 272.04449,446.9984 c -8.07774,-0.56974 -20.1857,-4.91361 -27.64652,-9.91853 -6.08868,-4.08444 -13.20348,-11.63966 -16.91212,-17.95901 -10.91113,-18.5921 -10.51795,-41.17514 1.02308,-58.76288 4.13456,-6.30078 12.92678,-14.72975 19.33668,-18.5378 2.68976,-1.59796 7.66924,-3.87074 11.06551,-5.05063 5.30668,-1.84357 7.45853,-2.19445 15.30187,-2.49513 12.49446,-0.47898 21.17516,1.178 30.26959,5.77789 15.85508,8.01937 26.35886,21.00705 30.6113,37.85018 1.27127,5.03526 1.43556,7.23429 1.14374,15.30829 -0.30362,8.40028 -0.57898,10.06104 -2.52525,15.23026 -7.32597,19.45753 -21.79215,32.33106 -42.31666,37.65786 -2.9052,0.75399 -14.06169,1.27258 -19.35122,0.8995 z m -4.21058,-27.30144 c 8.59336,-1.40719 15.6924,-6.5449 18.987,-13.74126 0.96884,-2.11624 2.27152,-6.85943 2.89483,-10.54043 1.42846,-8.43589 2.12068,-9.68998 5.66107,-10.25611 l 2.76136,-0.44156 V 372.97741 361.2372 h -3.78158 c -5.36404,0 -13.41048,1.83587 -16.83021,3.83997 -3.33088,1.95202 -6.55694,5.74091 -8.1617,9.58561 -0.6061,1.4521 -1.41778,5.71737 -1.80373,9.47837 -1.05831,10.31293 -1.72919,11.46538 -7.27793,12.50199 -1.79475,0.3353 -3.38927,0.73572 -3.54338,0.88982 -0.1541,0.15411 -0.0913,5.35838 0.13952,11.56505 l 0.4197,11.28486 3.19783,-0.004 c 1.75881,-0.002 5.06055,-0.30907 7.33722,-0.68188 z"
           id="path26"
           sodipodi:nodetypes="ssssssssssssscssscccssssssccccc" />
        <path
           style="fill:#cf2223;fill-opacity:1;stroke:none;stroke-width:0.264583px;stroke-linecap:butt;stroke-linejoin:miter;stroke-opacity:1"
           d="m 257.29886,420.38287 c 10.81907,8.55482 21.63842,17.10986 27.30409,21.40945 5.66567,4.29958 6.17794,4.34412 7.67015,3.97658 1.49222,-0.36755 3.96441,-1.14707 6.31416,-2.0157 2.34974,-0.86864 4.57694,-1.82634 6.18055,-2.59474 1.60361,-0.7684 2.58357,-1.34747 3.71948,-2.03793 1.1359,-0.69045 2.42768,-1.49224 3.86425,-2.48337 1.43657,-0.99113 3.01789,-2.17155 4.06467,-3.04016 1.04678,-0.86861 1.55904,-1.42541 2.23837,-2.11587 0.67933,-0.69046 1.52567,-1.51453 2.33861,-2.39428 0.81293,-0.87976 1.59246,-1.81519 2.40541,-2.77291 0.81296,-0.95773 1.65929,-1.93769 2.4945,-3.07358 0.83522,-1.13588 1.65928,-2.42766 2.49451,-3.87537 0.83522,-1.44771 1.68156,-3.0513 2.47223,-4.63265 0.79068,-1.58135 1.52565,-3.14039 2.14608,-4.62824 0.62043,-1.48785 1.12628,-2.90445 1.5682,-4.17975 0.44192,-1.27529 0.81989,-2.4092 1.0719,-4.26755 0.252,-1.85836 0.37799,-4.44115 0.48176,-6.89653 0.10376,-2.45538 0.18529,-4.78346 0.26681,-7.11133 0,0 -38.25642,-26.41174 -38.25642,-26.41174 0,0 0,23.4804 0,23.4804 -0.63361,0.0862 -1.26699,0.1724 -1.96246,0.31572 -0.69546,0.14333 -1.45271,0.34378 -1.95385,0.47741 -0.50113,0.13364 -0.74613,0.20045 -1.09143,0.43434 -0.34531,0.23388 -0.79075,0.63477 -1.13601,1.18054 -0.34527,0.54576 -0.59026,1.23619 -0.90207,2.19393 -0.31182,0.95774 -0.69044,2.1827 -0.92429,3.38546 -0.23384,1.20277 -0.32293,2.38318 -0.70158,4.14269 -0.37866,1.75952 -1.04682,4.09808 -1.52568,5.77966 -0.47886,1.68158 -0.7684,2.7061 -1.31408,3.81968 -0.54568,1.11357 -1.34747,2.31626 -2.21609,3.48556 -0.86863,1.1693 -1.80406,2.30517 -2.79883,3.23799 -0.99478,0.93281 -2.04893,1.66259 -3.14298,2.36609 -1.09405,0.7035 -2.22796,1.38069 -3.40123,1.93978 -1.17328,0.55909 -2.38593,1.00005 -3.59807,1.35046 -1.21215,0.3504 -2.42377,0.61022 -3.4317,0.79921 -1.00793,0.189 -1.81215,0.30715 -2.88361,0.4371 -1.07145,0.12996 -2.41009,0.2717 -3.76381,0.32695 -1.35372,0.0553 -2.72275,0.024 -4.09154,-0.007 0,0 0,-10e-6 0,-10e-6 z"
           id="path875"
           inkscape:path-effect="#path-effect877"
           inkscape:original-d="m 257.29886,420.38287 c 0,0 21.63839,17.1099 32.4572,25.66446 0.51254,0.0448 1.0248,0.0894 1.5368,0.13363 2.47256,-0.77929 4.94475,-1.55881 7.41673,-2.33861 2.22755,-0.95747 4.45475,-1.91517 6.68174,-2.87315 0.98027,-0.57883 1.96024,-1.1579 2.93996,-1.73725 1.29209,-0.80156 2.58387,-1.60335 3.87541,-2.40543 1.58164,-1.18019 3.16295,-2.36061 4.74403,-3.54132 0.51254,-0.55655 1.0248,-1.11335 1.5368,-1.67043 0.84664,-0.82383 1.69298,-1.6479 2.53906,-2.47224 0.77982,-0.9352 1.55934,-1.87063 2.33861,-2.80633 0.84664,-0.97975 1.69297,-1.95971 2.53906,-2.93996 0.82436,-1.29157 1.64843,-2.58334 2.47225,-3.87541 0.84663,-1.60339 1.69297,-3.20697 2.53906,-4.81085 0.73527,-1.55884 1.47024,-3.11788 2.20497,-4.67722 0.50613,-1.4164 1.01198,-2.833 1.51757,-4.2499 0.37825,-1.13369 0.75622,-2.2676 1.13393,-3.40179 0.12626,-2.58262 0.25225,-5.16541 0.37798,-7.74851 0.0818,-2.32766 0.24457,-6.98362 0.24457,-6.98362 0,0 -38.25642,-26.41174 -38.25642,-26.41174 0,0 0,23.4804 0,23.4804 0,0 -1.26695,0.17269 -1.90083,0.25864 -0.75701,0.20072 -1.51426,0.40117 -2.27179,0.60136 -0.24473,0.0671 -0.48973,0.1339 -0.73499,0.20045 -0.44519,0.40118 -0.89063,0.80207 -1.33635,1.20271 -0.24473,0.69073 -0.48972,1.38116 -0.73499,2.07134 -0.37837,1.22528 -0.75699,2.45024 -1.13589,3.67496 -0.0888,1.18073 -0.17792,2.36114 -0.26727,3.54132 -0.66792,2.33892 -1.33608,4.67748 -2.00452,7.01583 -0.28928,1.02481 -0.57882,2.04933 -0.86863,3.07359 -0.80156,1.20301 -1.60335,2.4057 -2.40542,3.60814 -0.9352,1.13619 -1.87063,2.27206 -2.80634,3.40769 -1.05392,0.73006 -2.10807,1.45984 -3.1625,2.18936 -1.13369,0.67749 -2.2676,1.35468 -3.40179,2.03162 -1.21243,0.44125 -2.42508,0.88221 -3.63802,1.32292 -1.2114,0.26009 -2.42302,0.51991 -3.63494,0.77946 -0.80397,0.11842 -1.60819,0.23658 -2.41268,0.35447 -1.33843,0.14201 -2.67707,0.28374 -4.016,0.42522 -1.36855,-0.031 -4.10636,-0.0938 -4.10636,-0.0938 z" />
      </g>
      <g
         id="g1195"
         transform="matrix(0.87083768,0,0,0.88575013,-446.23823,-151.13511)"
         inkscape:export-xdpi="96"
         inkscape:export-ydpi="96">
        <path
           style="fill:#706d72;fill-opacity:1;stroke:none;stroke-width:0.690151px;stroke-linecap:butt;stroke-linejoin:miter;stroke-opacity:1"
           d="m 717.34914,437.08157 c 11.07927,-20.0156 32.88768,-59.70667 32.88768,-59.70667 l 33.2357,59.87775 z"
           id="path1157" />
        <path
           style="fill:#312f31;fill-opacity:1;stroke:none;stroke-width:0.690151px;stroke-linecap:butt;stroke-linejoin:miter;stroke-opacity:1"
           d="m 732.05647,463.59097 h 2.13161 l 31.70329,-57.99473 -0.94722,-1.71194 z"
           id="path1159" />
        <path
           style="fill:#312f31;fill-opacity:1;stroke:none;stroke-width:0.690151px;stroke-linecap:butt;stroke-linejoin:miter;stroke-opacity:1"
           d="m 736.84314,472.29808 h 2.13161 l 31.70329,-57.99473 -0.94722,-1.71194 z"
           id="path1161" />
        <path
           style="fill:#312f31;fill-opacity:1;stroke:none;stroke-width:0.690151px;stroke-linecap:butt;stroke-linejoin:miter;stroke-opacity:1"
           d="m 734.53609,468.12457 h 2.13161 l 31.70329,-57.99473 -0.94722,-1.71194 z"
           id="path1163" />
        <path
           style="fill:#312f31;fill-opacity:1;stroke:none;stroke-width:0.690151px;stroke-linecap:butt;stroke-linejoin:miter;stroke-opacity:1"
           d="m 729.62035,459.10014 h 2.13161 l 31.70329,-57.99473 -0.94722,-1.71194 z"
           id="path1165" />
        <path
           style="fill:#312f31;fill-opacity:1;stroke:none;stroke-width:0.690151px;stroke-linecap:butt;stroke-linejoin:miter;stroke-opacity:1"
           d="m 739.45327,476.87445 h 2.13161 l 31.70329,-57.99473 -0.94722,-1.71194 z"
           id="path1167" />
        <path
           style="fill:#312f31;fill-opacity:1;stroke:none;stroke-width:0.690151px;stroke-linecap:butt;stroke-linejoin:miter;stroke-opacity:1"
           d="m 741.75889,481.15143 h 2.13161 l 31.70329,-57.99473 -0.94722,-1.71194 z"
           id="path1169" />
        <path
           style="fill:#312f31;fill-opacity:1;stroke:none;stroke-width:0.690151px;stroke-linecap:butt;stroke-linejoin:miter;stroke-opacity:1"
           d="m 748.93676,493.89683 h 2.13161 l 31.70329,-57.99473 -0.94722,-1.71194 z"
           id="path1171" />
        <path
           style="fill:#312f31;fill-opacity:1;stroke:none;stroke-width:0.690151px;stroke-linecap:butt;stroke-linejoin:miter;stroke-opacity:1"
           d="m 727.19554,454.73176 h 2.13161 l 31.70329,-57.99473 -0.94722,-1.71194 z"
           id="path1173" />
        <path
           style="fill:#312f31;fill-opacity:1;stroke:none;stroke-width:0.690151px;stroke-linecap:butt;stroke-linejoin:miter;stroke-opacity:1"
           d="m 724.81275,450.58194 h 2.13161 l 31.70329,-57.99473 -0.94722,-1.71194 z"
           id="path1175" />
        <path
           style="fill:#312f31;fill-opacity:1;stroke:none;stroke-width:0.690151px;stroke-linecap:butt;stroke-linejoin:miter;stroke-opacity:1"
           d="m 722.20262,445.92003 h 2.13161 l 31.70329,-57.99473 -0.94722,-1.71194 z"
           id="path1177" />
        <path
           style="fill:#ffffff;fill-opacity:1;stroke:none;stroke-width:0.690151px;stroke-linecap:butt;stroke-linejoin:miter;stroke-opacity:1"
           d="m 730.48681,429.383 5.8293,0.51324 3.30617,-7.69857 h 22.18613 l 3.56719,7.61303 6.43832,-0.0855 -21.05507,-37.46636 -2.52313,4.19144 11.22357,21.64153 -17.22688,0.17108 -3.13216,-5.04684 z"
           id="path1179" />
        <path
           style="fill:#312f31;fill-opacity:1;stroke:none;stroke-width:0.690151px;stroke-linecap:butt;stroke-linejoin:miter;stroke-opacity:1"
           d="m 717.34914,437.08157 h 2.13161 l 31.70329,-57.99473 -0.94722,-1.71194 z"
           id="path1181" />
        <path
           style="fill:url(#linearGradient1201);fill-opacity:1;stroke:#670000;stroke-width:0.243375;stroke-linecap:butt;stroke-linejoin:miter;stroke-miterlimit:4;stroke-dasharray:none;stroke-opacity:1"
           d="m 739.03061,413.56989 9.17939,-16.87563 11.05011,21.29206 -17.10969,0.34184 z"
           id="path1183"
           sodipodi:nodetypes="ccccc" />
        <path
           style="fill:#312f31;fill-opacity:1;stroke:none;stroke-width:0.690151px;stroke-linecap:butt;stroke-linejoin:miter;stroke-opacity:1"
           d="m 719.81,441.55751 h 2.13161 l 31.70329,-57.99473 -0.94722,-1.71194 z"
           id="path1185" />
        <path
           style="fill:#312f31;fill-opacity:1;stroke:none;stroke-width:0.690151px;stroke-linecap:butt;stroke-linejoin:miter;stroke-opacity:1"
           d="m 744.23852,485.59949 h 2.13161 l 31.70329,-57.99473 -0.94722,-1.71194 z"
           id="path1187" />
        <path
           style="fill:#312f31;fill-opacity:1;stroke:none;stroke-width:0.690151px;stroke-linecap:butt;stroke-linejoin:miter;stroke-opacity:1"
           d="m 746.58764,489.79093 h 2.13161 l 31.70329,-57.99473 -0.94722,-1.71194 z"
           id="path1189" />
        <path
           id="path1191"
           style="fill:#ffffff;fill-opacity:1;stroke:none;stroke-width:1.37987;paint-order:fill markers stroke"
           d="m 717.34918,437.08157 h 67.17954 v 58.62163 h -67.17954 z" />
        <path
           style="fill:url(#linearGradient1203);fill-opacity:1;stroke:none;stroke-width:0.738338px;stroke-linecap:butt;stroke-linejoin:miter;stroke-opacity:1"
           d="m 739.18036,413.55668 9.02481,-16.62833 8.04434,15.58123 -14.0322,5.6885 z"
           id="path1193"
           sodipodi:nodetypes="ccccc" />
      </g>
      <rect
         style="fill:#605f5a;fill-opacity:1;stroke-width:0.430651;paint-order:fill markers stroke"
         id="rect2849"
         width="29.083408"
         height="1.0222386"
         x="1059.0308"
         y="280.673" />
      <path
         style="fill:#f42127;fill-opacity:1;stroke-width:0.266761"
         d="m 1096.8058,253.71462 c -3.0706,-0.22029 -7.6732,-1.89979 -10.5093,-3.83489 -2.3145,-1.5792 -5.019,-4.50034 -6.4288,-6.94364 -4.1476,-7.18842 -3.9981,-15.9199 0.3889,-22.71999 1.5717,-2.43613 4.9139,-5.69509 7.3505,-7.16743 1.0224,-0.61783 2.9153,-1.49658 4.2063,-1.95277 2.0172,-0.71279 2.8352,-0.84846 5.8167,-0.96471 4.7495,-0.18519 8.0493,0.45546 11.5063,2.23395 6.027,3.1006 10.0198,8.12214 11.6363,14.63434 0.4832,1.94682 0.5457,2.79705 0.4348,5.91877 -0.1155,3.24787 -0.2201,3.88999 -0.96,5.88861 -2.7848,7.52303 -8.2838,12.50043 -16.0858,14.55997 -1.1043,0.29153 -5.3452,0.49203 -7.3559,0.34779 z m -1.6006,-10.55579 c 3.2666,-0.54407 5.9652,-2.53051 7.2175,-5.3129 0.3683,-0.81822 0.8635,-2.65212 1.1004,-4.07534 0.543,-3.26164 0.8062,-3.74652 2.152,-3.9654 l 1.0496,-0.17073 v -4.53921 -4.53921 h -1.4374 c -2.0391,0 -5.0978,0.70981 -6.3977,1.48468 -1.2662,0.75472 -2.4925,2.21965 -3.1025,3.70616 -0.2304,0.56144 -0.5389,2.21056 -0.6856,3.6647 -0.4023,3.98738 -0.6574,4.43296 -2.7666,4.83375 -0.6822,0.12964 -1.2884,0.28446 -1.3469,0.34404 -0.059,0.0596 -0.035,2.07176 0.053,4.4715 l 0.1595,4.36316 1.2156,-0.002 c 0.6686,-7.7e-4 1.9237,-0.1195 2.7891,-0.26364 z"
         id="path2851"
         sodipodi:nodetypes="ssssssssssssscssscccssssssccccc" />
      <path
         style="fill:#cf2223;fill-opacity:1;stroke:none;stroke-width:0.101433px;stroke-linecap:butt;stroke-linejoin:miter;stroke-opacity:1"
         d="m 1091.2005,243.42403 c 4.1127,3.30762 8.2254,6.61532 10.3791,8.27771 2.1537,1.6624 2.3484,1.67964 2.9156,1.53754 0.5673,-0.1421 1.5071,-0.44349 2.4003,-0.77933 0.8932,-0.33584 1.7398,-0.70612 2.3493,-1.00322 0.6096,-0.29711 0.9821,-0.521 1.4139,-0.78796 0.4318,-0.26696 0.9228,-0.57694 1.4689,-0.96015 0.5461,-0.38322 1.1472,-0.83962 1.5451,-1.17547 0.398,-0.33586 0.5927,-0.55112 0.8509,-0.81809 0.2583,-0.26696 0.58,-0.58557 0.889,-0.92569 0.309,-0.34013 0.6053,-0.7018 0.9144,-1.0721 0.309,-0.37031 0.6307,-0.74921 0.9482,-1.18839 0.3175,-0.43919 0.6307,-0.93865 0.9482,-1.49837 0.3175,-0.55972 0.6393,-1.17976 0.9398,-1.79116 0.3006,-0.6114 0.58,-1.21419 0.8158,-1.78945 0.2359,-0.57527 0.4281,-1.12296 0.5961,-1.61605 0.168,-0.49308 0.3117,-0.93149 0.4075,-1.65 0.096,-0.71851 0.1437,-1.71713 0.1831,-2.66647 0.04,-0.94934 0.071,-1.84946 0.1015,-2.74951 0,0 -14.5424,-10.21179 -14.5424,-10.21179 0,0 0,9.07842 0,9.07842 -0.2409,0.0333 -0.4816,0.0667 -0.746,0.12206 -0.2643,0.0554 -0.5522,0.13292 -0.7427,0.18459 -0.1905,0.0517 -0.2836,0.0775 -0.4149,0.16793 -0.1313,0.0904 -0.3006,0.24544 -0.4318,0.45645 -0.1313,0.21101 -0.2244,0.47798 -0.3429,0.84828 -0.1186,0.3703 -0.2625,0.8439 -0.3514,1.30894 -0.089,0.46504 -0.1227,0.92145 -0.2667,1.60173 -0.1439,0.68028 -0.3979,1.58446 -0.58,2.23461 -0.182,0.65016 -0.2921,1.04629 -0.4995,1.47685 -0.2074,0.43056 -0.5122,0.89558 -0.8423,1.34766 -0.3302,0.45208 -0.6858,0.89126 -1.064,1.25191 -0.3781,0.36066 -0.7789,0.64285 -1.1947,0.91483 -0.4159,0.27198 -0.847,0.53384 -1.293,0.75001 -0.4459,0.21616 -0.9069,0.38663 -1.3676,0.52212 -0.4608,0.13548 -0.9214,0.23594 -1.3046,0.30901 -0.3831,0.0731 -0.6888,0.11875 -1.0961,0.169 -0.4073,0.0503 -0.9161,0.10504 -1.4307,0.1264 -0.5146,0.0214 -1.035,0.009 -1.5553,-0.003 0,0 -10e-5,-1e-5 -10e-5,-1e-5 z"
         id="path2853"
         inkscape:path-effect="#path-effect2855"
         inkscape:original-d="m 1091.2005,243.42403 c 0,0 8.2254,6.61534 12.338,9.92287 0.1948,0.0173 0.3895,0.0346 0.5841,0.0517 0.9399,-0.3013 1.8797,-0.60269 2.8194,-0.90419 0.8467,-0.3702 1.6933,-0.74048 2.5399,-1.11087 0.3726,-0.2238 0.7451,-0.44769 1.1175,-0.67169 0.4912,-0.30992 0.9822,-0.61992 1.4732,-0.93003 0.6012,-0.45631 1.2023,-0.91271 1.8033,-1.36921 0.1949,-0.21519 0.3896,-0.43047 0.5842,-0.64586 0.3219,-0.31852 0.6436,-0.63714 0.9652,-0.95586 0.2964,-0.36158 0.5927,-0.72326 0.889,-1.08504 0.3218,-0.3788 0.6435,-0.75769 0.9651,-1.1367 0.3134,-0.49937 0.6267,-0.99882 0.9398,-1.49838 0.3218,-0.61993 0.6436,-1.23994 0.9652,-1.86006 0.2795,-0.60271 0.5589,-1.20549 0.8382,-1.80839 0.1924,-0.54764 0.3846,-1.09535 0.5768,-1.64318 0.1438,-0.43833 0.2875,-0.87674 0.4311,-1.31526 0.048,-0.99854 0.096,-1.99715 0.1437,-2.99587 0.031,-0.89997 0.093,-2.70014 0.093,-2.70014 0,0 -14.5424,-10.21179 -14.5424,-10.21179 0,0 0,9.07842 0,9.07842 0,0 -0.4816,0.0668 -0.7226,0.1 -0.2877,0.0776 -0.5756,0.15511 -0.8636,0.23251 -0.093,0.0259 -0.1861,0.0518 -0.2794,0.0775 -0.1692,0.15511 -0.3385,0.31011 -0.5079,0.46502 -0.093,0.26706 -0.1862,0.53401 -0.2794,0.80086 -0.1439,0.47374 -0.2878,0.94735 -0.4318,1.42088 -0.034,0.45651 -0.068,0.91291 -0.1016,1.36921 -0.2539,0.90431 -0.5079,1.80849 -0.762,2.71259 -0.1099,0.39623 -0.22,0.79235 -0.3302,1.18837 -0.3047,0.46513 -0.6095,0.93013 -0.9143,1.39504 -0.3555,0.4393 -0.7111,0.87847 -1.0668,1.31755 -0.4006,0.28227 -0.8014,0.56443 -1.2022,0.84649 -0.4309,0.26194 -0.862,0.52377 -1.2931,0.7855 -0.4609,0.1706 -0.9218,0.3411 -1.3829,0.51149 -0.4605,0.10056 -0.9211,0.20102 -1.3818,0.30137 -0.3056,0.0458 -0.6113,0.0915 -0.9171,0.13705 -0.5088,0.0549 -1.0176,0.10971 -1.5266,0.16441 -0.5202,-0.012 -1.5609,-0.0363 -1.5609,-0.0363 z" />
      <text
         xml:space="preserve"
         style="font-style:normal;font-variant:normal;font-weight:normal;font-stretch:normal;font-size:4.60297px;line-height:1.25;font-family:'Triumvirate Cond Black';-inkscape-font-specification:'Triumvirate Cond Black, Normal';font-variant-ligatures:normal;font-variant-caps:normal;font-variant-numeric:normal;font-variant-east-asian:normal;fill:#656660;fill-opacity:1;stroke:none;stroke-width:0.115075"
         x="1184.9553"
         y="242.0891"
         id="text2859"
         transform="scale(0.94637363,1.0566651)"><tspan
           sodipodi:role="line"
           id="tspan2857"
           x="1184.9553"
           y="242.0891"
           style="font-style:normal;font-variant:normal;font-weight:normal;font-stretch:normal;font-size:4.60297px;font-family:'Triumvirate Cond Black';-inkscape-font-specification:'Triumvirate Cond Black, Normal';font-variant-ligatures:normal;font-variant-caps:normal;font-variant-numeric:normal;font-variant-east-asian:normal;fill:#656660;fill-opacity:1;stroke-width:0.115075">G R U P O</tspan></text>
      <text
         xml:space="preserve"
         style="font-style:normal;font-variant:normal;font-weight:normal;font-stretch:normal;font-size:6.37682px;line-height:1.25;font-family:'Triumvirate Cond Black';-inkscape-font-specification:'Triumvirate Cond Black, @wght=700,wdth=98.0';font-variant-ligatures:normal;font-variant-caps:normal;font-variant-numeric:normal;font-variant-east-asian:normal;font-variation-settings:'wdth' 98, 'wght' 700;fill:#61605b;fill-opacity:1;stroke:none;stroke-width:0.159422"
         x="1179.3938"
         y="250.07968"
         id="text2863"
         transform="scale(0.89828315,1.1132347)"><tspan
           sodipodi:role="line"
           id="tspan2861"
           x="1179.3938"
           y="250.07968"
           style="font-style:normal;font-variant:normal;font-weight:normal;font-stretch:normal;font-size:6.37682px;font-family:'Triumvirate Cond Black';-inkscape-font-specification:'Triumvirate Cond Black, @wght=700,wdth=98.0';font-variant-ligatures:normal;font-variant-caps:normal;font-variant-numeric:normal;font-variant-east-asian:normal;font-variation-settings:'wdth' 98, 'wght' 700;fill:#61605b;fill-opacity:1;stroke-width:0.159422">Automação Consultoria Softwares</tspan></text>
      <text
         xml:space="preserve"
         style="font-style:normal;font-weight:normal;font-size:4.05732px;line-height:1.25;font-family:sans-serif;fill:#7d3735;fill-opacity:1;stroke:none;stroke-width:0.101433"
         x="1125.5415"
         y="212.98708"
         id="text2867"
         transform="scale(0.99154628,1.0085258)"><tspan
           sodipodi:role="line"
           id="tspan2865"
           x="1125.5415"
           y="212.98708"
           style="fill:#7d3735;fill-opacity:1;stroke-width:0.101433">®</tspan></text>
      <text
         xml:space="preserve"
         style="font-style:normal;font-variant:normal;font-weight:normal;font-stretch:normal;font-size:19.1578px;line-height:1.25;font-family:'Triumvirate Cond Black';-inkscape-font-specification:'Triumvirate Cond Black, Normal';font-variant-ligatures:normal;font-variant-caps:normal;font-variant-numeric:normal;font-variant-east-asian:normal;fill:#5c5b57;fill-opacity:1;stroke-width:0.372782"
         x="1096.0416"
         y="259.61148"
         id="text2871"
         transform="scale(0.96642654,1.0347398)"><tspan
           sodipodi:role="line"
           id="tspan2869"
           x="1096.0416"
           y="259.61148"
           style="font-style:normal;font-variant:normal;font-weight:normal;font-stretch:normal;font-size:19.1578px;font-family:'Triumvirate Cond Black';-inkscape-font-specification:'Triumvirate Cond Black, Normal';font-variant-ligatures:normal;font-variant-caps:normal;font-variant-numeric:normal;font-variant-east-asian:normal;fill:#5c5b57;fill-opacity:1;stroke-width:0.372782">Softpostos</tspan></text>
      <g
         inkscape:label="Layer 1"
         id="g2922"
         transform="matrix(1.7661118,0,0,1.7661118,404.44468,206.93834)"
         inkscape:export-xdpi="96"
         inkscape:export-ydpi="96">
        <text
           xml:space="preserve"
           id="text2902"
           style="font-style:normal;font-weight:normal;font-size:10.5833px;line-height:1.25;font-family:sans-serif;white-space:pre;shape-inside:url(#rect2924);fill:#000000;fill-opacity:1;stroke:none;" />
        <g
           id="g2920"
           transform="matrix(0.17098211,0,0,0.17098211,-11.943397,0.09400533)">
          <g
             id="g2918"
             transform="matrix(2.9346296,0,0,2.9346296,-134.69139,1.4684738)">
            <g
               inkscape:label="Layer 1"
               id="g2916"
               transform="matrix(1.9929483,0,0,1.9929483,-288.5375,-318.93063)">
              <text
                 xml:space="preserve"
                 id="text2904"
                 style="font-style:normal;font-weight:normal;font-size:10.5833px;line-height:1.25;font-family:sans-serif;white-space:pre;shape-inside:url(#rect2926);fill:#000000;fill-opacity:1;stroke:none;" />
              <g
                 id="g2914"
                 transform="translate(10.38934,130.73221)">
                <g
                   id="g2912"
                   transform="matrix(0.43169803,0,0,0.43169803,-33.265199,-23.036189)">
                  <path
                     style="fill:#00aeef;fill-opacity:1;stroke-width:0.264583"
                     d="m 248.65211,135.74783 c -0.20042,-0.52227 -0.1574,-0.64911 1.74833,-5.15542 4.86875,-11.51266 6.52878,-18.15498 6.08341,-24.34167 -0.33404,-4.6402 -0.29336,-4.5414 -2.49766,-6.06523 -3.836,-2.651831 -8.17355,-7.661181 -10.32698,-11.926431 -1.63544,-3.2393 -3.06401,-8.67537 -3.01488,-11.47246 l 0.0239,-1.35983 0.46044,1.71979 c 2.3531,8.7891 7.76394,15.65602 14.25511,18.09122 2.66376,0.99933 4.45076,1.24107 7.01791,0.94938 2.35781,-0.26792 3.61609,-0.63187 5.49048,-1.58811 2.37395,-1.2111 5.07463,-3.59449 7.03412,-6.2077 0.81388,-1.0854 2.47125,-3.90178 2.47125,-4.19939 0,-0.0914 -0.6451,-0.16623 -1.43356,-0.16623 -2.40335,0 -2.40286,10e-4 -0.9666,-2.73437 0.70022,-1.33375 1.67015,-3.52068 2.15541,-4.85983 0.98524,-2.71893 0.87895,-2.69455 2.63006,-0.60304 l 1.04609,1.24944 -0.62264,1.82025 c -0.34246,1.00114 -1.0388,2.53463 -1.54742,3.40775 -0.50863,0.87313 -1.2422,2.7066 -1.63016,4.07439 -1.11523,3.93182 -2.79197,6.9372 -5.18137,9.28707 -1.19966,1.17982 -2.57541,2.24408 -3.39316,2.62492 -0.84774,0.3948 -1.3754,0.80901 -1.3754,1.07968 0,0.840481 1.86583,9.679641 2.76539,13.100771 1.91319,7.27602 3.8043,11.20211 5.70128,11.83629 0.62572,0.20918 -0.95456,0.54592 -1.69263,0.36067 -2.00755,-0.50386 -6.17766,-5.63053 -10.08613,-12.39972 -0.56716,-0.98227 -1.11017,-1.78594 -1.20671,-1.78594 -0.0965,0 -0.25187,0.57551 -0.34518,1.27891 -0.48429,3.6508 -6.24793,17.93172 -8.80279,21.81123 -0.84788,1.28749 -1.21881,1.60286 -2.40889,2.04813 -1.68714,0.63124 -2.1475,0.65581 -2.35101,0.12548 z m 10.40551,-41.786671 c -1.00849,-0.35967 -1.81334,-0.92047 -2.56218,-1.78524 -0.21828,-0.25208 -1.11125,-0.73048 -1.98437,-1.06311 -0.87313,-0.33262 -2.33164,-1.01921 -3.24115,-1.52574 l -1.65364,-0.92097 v -1.74691 c 0,-0.96081 0.0728,-1.81973 0.16179,-1.90871 0.089,-0.089 1.14057,0.36742 2.33685,1.01423 1.19628,0.64682 2.3141,1.17604 2.48404,1.17604 0.16994,0 0.30898,-0.28327 0.30898,-0.62949 0,-0.5152 -0.41373,-0.86169 -2.27892,-1.90852 -1.2534,-0.70348 -2.34043,-1.43933 -2.4156,-1.63523 -0.16402,-0.42743 0.97879,-5.31339 1.2874,-5.50411 0.11893,-0.0735 1.88735,0.72048 3.92981,1.76443 3.23234,1.65211 3.96195,1.92243 5.63033,2.08602 1.96161,0.19235 3.21752,0.67883 4.48705,1.73807 0.42377,0.35358 1.65594,0.82029 3.00573,1.13848 1.25816,0.29659 2.33246,0.58415 2.38733,0.63903 0.0549,0.0549 -0.58332,0.90466 -1.41823,1.8884 -1.52125,1.79243 -2.67731,3.6658 -2.69774,4.37164 -0.008,0.26197 0.18192,0.1957 0.6216,-0.21736 0.45408,-0.42659 0.88324,-0.57021 1.52136,-0.50914 0.84482,0.0808 0.80366,0.11696 -0.83095,0.72906 -0.94589,0.3542 -2.21876,1.07738 -2.82861,1.60708 -1.76078,1.52934 -4.08175,1.97566 -6.25088,1.20205 z m 12.04353,-6.89916 c 1.29933,-1.5605 1.78268,-1.9702 2.19534,-1.86082 0.29104,0.0771 1.18401,0.1475 1.98437,0.15635 l 1.45521,0.0161 -1.71323,1.5742 c -1.07981,0.99219 -2.00912,1.61831 -2.51354,1.69349 -0.44017,0.0656 -1.31197,0.18734 -1.93732,0.27052 l -1.137,0.15125 z m -24.69362,-1.15436 -1.75354,-1.92235 -0.18055,-2.06978 c -0.13567,-1.55533 -0.30813,-2.18525 -0.69386,-2.53432 -0.60753,-0.54982 -0.66715,-2.23491 -0.17022,-4.8114 l 0.31837,-1.65075 2.23718,1.60188 c 1.23045,0.88103 2.40672,1.69676 2.61394,1.81273 0.31779,0.17784 0.26785,0.62378 -0.31894,2.84848 -0.80857,3.06548 -0.83651,3.45575 -0.29064,4.05893 0.33166,0.36648 0.36762,0.82287 0.19844,2.51827 l -0.20664,2.07067 z m 22.46785,-3.03147 c -1.26744,-0.32614 -2.38162,-0.67016 -2.47594,-0.76449 -0.0943,-0.0943 0.45288,-1.33936 1.21602,-2.76674 0.76314,-1.42738 2.0028,-4.14305 2.75479,-6.03482 0.75199,-1.89177 1.50529,-3.43958 1.67399,-3.43958 0.16871,0 1.31168,0.70672 2.53994,1.5705 l 2.23321,1.5705 -1.01672,2.83824 c -1.56805,4.37731 -3.37098,7.65943 -4.19299,7.63309 -0.23532,-0.008 -1.46486,-0.28056 -2.7323,-0.6067 z m -5.63306,-1.69631 c -3.41083,-1.3317 -6.39583,-2.65918 -8.67743,-3.85897 -2.40497,-1.26467 -2.5803,-1.41083 -2.42982,-2.02544 0.35777,-1.46127 2.13347,-5.61035 3.77299,-8.81591 1.99696,-3.9044 1.46921,-3.70076 5.48218,-2.11545 3.03506,1.19899 9.12812,4.27559 9.12812,4.60911 0,1.28667 -5.35961,12.69898 -5.9388,12.64558 -0.1534,-0.0141 -0.75516,-0.21165 -1.33724,-0.43892 z m -21.62969,-6.14251 c -0.63489,-0.8883 -0.7276,-1.26501 -0.7276,-2.95624 v -1.93821 l 1.03479,1.05445 1.0348,1.05444 -0.30719,1.90179 -0.3072,1.90179 z m 38.08578,-1.27763 -1.26065,-1.27991 0.37852,-2.18122 c 0.20818,-1.19967 0.4337,-2.23641 0.50115,-2.30386 0.0675,-0.0675 0.55603,0.50664 1.08574,1.27575 0.87359,1.26842 0.96138,1.55802 0.94451,3.11589 -0.0298,2.75183 -0.17358,2.87156 -1.64927,1.37335 z m -32.46338,-0.7123 c -0.94589,-0.64481 -2.06442,-1.45327 -2.48564,-1.79657 l -0.76584,-0.62419 0.57729,-1.83327 c 0.66501,-2.11183 3.55105,-8.10016 4.13899,-8.58811 0.32021,-0.26575 0.97869,-0.19129 3.42927,0.38775 l 3.03296,0.71666 -1.4266,2.69292 c -1.33158,2.51356 -2.88925,6.03865 -3.96667,8.97678 -0.25348,0.69123 -0.54031,1.25309 -0.63742,1.24859 -0.0971,-0.005 -0.95046,-0.53575 -1.89634,-1.18056 z m 27.64896,-3.08108 c -1.01865,-0.73074 -2.015,-1.42104 -2.21412,-1.534 -0.29761,-0.16883 -0.23214,-0.70469 0.36789,-3.01103 0.84206,-3.23663 0.67178,-3.19482 3.25961,-0.80027 l 1.67006,1.54533 -0.2982,2.3618 c -0.30067,2.38145 -0.41633,2.8103 -0.75034,2.78219 -0.10055,-0.008 -1.01626,-0.61327 -2.0349,-1.34402 z m -34.38652,-2.3353 -1.29045,-1.31015 0.49088,-1.62129 c 0.26999,-0.89171 0.98988,-2.47429 1.59977,-3.51684 l 1.10888,-1.89556 1.8703,0.0873 1.8703,0.0873 -1.2855,2.42626 c -0.70702,1.33445 -1.61213,3.37877 -2.01134,4.54293 -0.39922,1.16417 -0.80157,2.20522 -0.89412,2.31345 -0.0926,0.10824 -0.74898,-0.39278 -1.45872,-1.11336 z m 27.90422,-1.60918 c -1.38244,-0.70365 -4.06135,-1.89963 -5.95312,-2.65774 -1.89177,-0.75811 -3.54283,-1.46967 -3.66901,-1.58124 -0.18916,-0.16725 1.26714,-2.49618 2.84555,-4.55066 0.33955,-0.44197 0.48732,-0.42224 2.70797,0.36143 2.58339,0.91169 6.47918,2.7904 7.49736,3.61553 l 0.65062,0.52726 -0.63603,2.69423 c -0.34981,1.48183 -0.70212,2.7339 -0.78291,2.78239 -0.0808,0.0485 -1.27798,-0.48756 -2.66043,-1.1912 z m 11.39629,0.10883 c -0.3016,-0.38343 -0.54371,-1.06804 -0.53801,-1.52135 l 0.0104,-0.82422 0.41,0.92604 c 1.01764,2.29846 1.04221,2.59491 0.11766,1.41953 z m -3.34076,-3.31125 c -0.71976,-0.59533 -1.55847,-1.27936 -1.86381,-1.52007 -0.49944,-0.39373 -0.53927,-0.62029 -0.39688,-2.25732 l 0.15829,-1.81967 1.61857,1.7322 c 1.5264,1.63356 1.62622,1.82044 1.75269,3.28138 0.0738,0.85204 0.11289,1.57543 0.087,1.60753 -0.0259,0.0321 -0.63605,-0.42873 -1.35581,-1.02405 z m -6.33573,-4.22231 c -1.30969,-0.69785 -3.42899,-1.64369 -4.70955,-2.10187 -1.28057,-0.45817 -2.28499,-0.963 -2.23204,-1.12183 0.0529,-0.15884 0.65613,-0.76333 1.34042,-1.34332 l 1.24417,-1.05453 1.51704,0.47055 c 0.83437,0.2588 2.43966,0.96454 3.5673,1.56831 l 2.05026,1.09776 2.6e-4,1.77033 c 1.4e-4,0.97367 -0.089,1.81827 -0.19818,1.87686 -0.10914,0.0586 -1.27,-0.46442 -2.57968,-1.16226 z m -17.06563,0.27062 c -0.94589,-0.27362 -2.22987,-0.62428 -2.8533,-0.77925 l -1.1335,-0.28176 0.57748,-0.81099 c 0.31761,-0.44605 1.18488,-1.45911 1.92725,-2.25126 l 1.34978,-1.44026 2.58199,0.30915 c 2.56323,0.30691 2.58826,0.30438 3.44389,-0.34824 1.01315,-0.77277 2.66717,-1.10941 4.18825,-0.85243 l 1.08601,0.18348 -1.09756,1.11833 -1.09755,1.11833 -1.59031,-0.2407 c -1.92437,-0.29126 -1.89581,-0.31071 -3.84557,2.6196 -0.80794,1.21426 -1.54731,2.19554 -1.64303,2.18062 -0.0957,-0.0149 -0.94794,-0.25099 -1.89383,-0.52462 z m -11.89162,-1.5419 -1.44059,-0.15531 1.64785,-1.48854 c 1.45822,-1.31724 1.80668,-1.50421 3.02808,-1.62466 0.75913,-0.0749 1.41476,-0.10473 1.45695,-0.0663 0.12487,0.11358 -2.90136,3.5804 -3.08426,3.5333 -0.0921,-0.0237 -0.81571,-0.11302 -1.60803,-0.19844 z"
                     id="path2906"
                     sodipodi:nodetypes="sssssscssssssscsscsssssssssssssssssssscsssssssssssssscsssssssscssscsccssscsssssccsssssscscssssssssssscccccsscssssssscssscsscssssscscsccsscccsssscsssssscssssscsssssscssssssssscsscssssscsscssscccssssccsscssc" />
                  <path
                     style="fill:#006196;fill-opacity:1;stroke-width:0.271037"
                     d="m 248.50134,136.64931 c -0.57633,-0.22795 -0.40024,-0.83735 1.58396,-5.48142 2.18024,-5.10293 4.83247,-12.72379 5.48077,-15.74832 1.06318,-4.96006 1.22169,-8.08028 0.59207,-11.65461 -0.2232,-1.2671 -0.55214,-2.25283 -0.55234,-2.27982 -2.1e-4,-0.027 -0.79945,-0.78972 -1.95475,-1.605581 -2.37653,-1.67832 -5.71615,-4.9457 -7.52541,-7.36264 -1.41544,-1.89086 -3.22631,-5.57809 -4.20429,-8.17637 -0.86037,-2.28578 -1.43464,-6.4566 -1.3934,-8.10596 0.0173,-0.69168 0.13937,-1.09117 0.20817,-0.79303 0.0688,0.29814 0.40149,1.82273 0.9288,3.38797 1.64595,4.88572 3.87776,8.74186 7.1005,11.72563 7.59793,7.03452 17.1788,7.24522 24.08382,0.0212 1.91805,-2.00669 3.07456,-3.51871 4.06405,-5.31337 0.96484,-1.74997 1.00649,-1.19591 0.11532,1.53411 -1.74967,5.35998 -4.36479,9.66642 -8.1569,11.5118 -0.84428,0.41085 -1.73656,0.57613 -1.73656,1.02004 0,0.33311 0.43356,2.717651 0.96346,5.298981 0.40052,1.95114 0.83323,3.66289 1.22587,5.32031 1.44703,6.10819 2.8463,10.23767 4.24079,12.50606 0.60438,0.98314 1.36748,1.4051 1.91729,1.79396 0.43967,0.25323 0.67356,0.35498 0.64748,0.44278 -0.0217,0.073 -0.2231,0.13636 -0.63538,0.26911 -1.26235,0.40648 -2.15841,-0.021 -4.28122,-2.15442 -0.69466,-0.69812 -1.54938,-1.71591 -2.49307,-2.96804 -1.71029,-2.26927 -3.63762,-5.32003 -5.04877,-7.82965 -0.48197,-0.85715 -0.97275,-1.55846 -1.09062,-1.55846 -0.11787,0 -0.20084,0.69487 -0.29761,1.40093 -0.25443,1.85626 -2.42892,7.69312 -4.66012,12.96174 -3.54583,8.37291 -4.90242,10.69477 -6.61485,11.32157 -1.48921,0.54511 -2.10967,0.67269 -2.50709,0.51552 z"
                     id="path2908"
                     sodipodi:nodetypes="sssssssssssssssssssscscsssssssss" />
                  <circle
                     style="fill:#006196;fill-opacity:1;stroke:none;stroke-width:18.0014"
                     id="circle2910"
                     cx="261.23618"
                     cy="87.869041"
                     r="6.4489059" />
                </g>
              </g>
            </g>
          </g>
        </g>
      </g>
      <g
         id="text3105"
         style="font-style:normal;font-weight:normal;font-size:10.5833px;line-height:1.25;font-family:sans-serif;white-space:pre;shape-inside:url(#rect3127);fill:#000000;fill-opacity:1;stroke:none"
         transform="matrix(1.780638,0,0,1.780638,177.40594,246.98267)" />
      <g
         id="g3247"
         transform="matrix(0.87083768,0,0,0.88575013,-198.1988,-192.46286)" />
    </g>
  </g>
</svg>
